<svg width="43" height="31" viewBox="0 0 43 31" fill="none" xmlns="http://www.w3.org/2000/svg">
<g opacity="0.5" clip-path="url(#clip0)">
<path d="M21.1569 30.9998H2.28248C1.05345 30.9998 0 29.9339 0 28.6903C0 27.4468 1.05345 26.3809 2.28248 26.3809H21.4202C22.6492 26.3809 23.7027 27.4468 23.7027 28.6903C23.4393 30.0227 22.3859 30.9998 21.1569 30.9998Z" fill="#848484"/>
<path d="M34.8517 22.117H20.1912C18.9621 22.117 17.9087 21.0511 17.9087 19.8075C17.9087 18.5639 18.9621 17.498 20.1912 17.498H34.8517C36.0808 17.498 37.1342 18.5639 37.1342 19.8075C37.0464 21.3175 35.993 22.117 34.8517 22.117Z" fill="#848484"/>
<path d="M20.3668 13.4119H12.2903C11.0613 13.4119 10.0078 12.346 10.0078 11.1024C10.0078 9.85887 11.0613 8.79297 12.2903 8.79297H20.3668C21.5958 8.79297 22.6493 9.85887 22.6493 11.1024C22.5615 12.346 21.508 13.4119 20.3668 13.4119Z" fill="#848484"/>
<path d="M24.8439 4.53004H17.2942C16.0652 4.53004 15.0117 3.46414 15.0117 2.22059C15.0117 0.977035 16.0652 -0.0888672 17.2942 -0.0888672H24.8439C26.073 -0.0888672 27.1264 0.977035 27.1264 2.22059C27.0386 3.64179 25.9852 4.53004 24.8439 4.53004Z" fill="#848484"/>
<path d="M29.8479 13.4119H28.97C27.741 13.4119 26.6875 12.346 26.6875 11.1024C26.6875 9.85887 27.741 8.79297 28.97 8.79297H29.8479C31.0769 8.79297 32.1303 9.85887 32.1303 11.1024C32.0426 12.346 30.9891 13.4119 29.8479 13.4119Z" fill="#848484"/>
<path d="M11.4123 22.117H7.1985C5.96947 22.117 4.91602 21.0511 4.91602 19.8075C4.91602 18.5639 5.96947 17.498 7.1985 17.498H11.4123C12.6413 17.498 13.6948 18.5639 13.6948 19.8075C13.607 21.3175 12.5536 22.117 11.4123 22.117Z" fill="#848484"/>
<path d="M39.9432 30.9998H30.0232C28.7942 30.9998 27.7407 29.9339 27.7407 28.6903C27.7407 27.4468 28.7942 26.3809 30.0232 26.3809H40.031C41.26 26.3809 42.3135 27.4468 42.3135 28.6903C42.0501 30.0227 41.1722 30.9998 39.9432 30.9998Z" fill="#848484"/>
</g>
<defs>
<clipPath id="clip0">
<rect width="42.2259" height="31" fill="white"/>
</clipPath>
</defs>
</svg>
